<svg width="48" height="48" viewBox="0 0 48 48" fill="none" xmlns="http://www.w3.org/2000/svg">
<g opacity="0.2" clip-path="url(#clip0)">
<path d="M44.7421 3.25754L43.3279 6.17874L45.5756 8.51995L42.3603 8.07766L40.8283 10.9388L40.2554 7.74427L37.0608 7.17135L39.922 5.6393L39.4797 2.42405L41.8209 4.67175L44.7421 3.25754Z" fill="#B62B21"/>
<path d="M14.6169 33.3831L16.0311 30.4619L13.7834 28.1207L16.9987 28.563L18.5307 25.7018L19.1036 28.8964L22.2982 29.4693L19.437 31.0013L19.8793 34.2166L17.5381 31.9689L14.6169 33.3831Z" fill="#B62B21"/>
<path d="M50.1903 12.552L49.2003 14.5968L50.7737 16.2356L48.523 15.926L47.4506 17.9289L47.0496 15.6927L44.8134 15.2916L46.8162 14.2192L46.5066 11.9685L48.1454 13.5419L50.1903 12.552Z" fill="#B62B21"/>
<path d="M9.48923 24.4091L10.3378 22.6564L8.98914 21.2517L10.9183 21.5171L11.8375 19.8004L12.1813 21.7171L14.098 22.0609L12.3813 22.9801L12.6467 24.9092L11.2419 23.5606L9.48923 24.4091Z" fill="#B62B21"/>
<path d="M35.4481 -2.19023L34.4582 -0.145388L36.0316 1.49346L33.7809 1.18385L32.7085 3.18667L32.3074 0.950478L30.0712 0.549436L32.0741 -0.522998L31.7644 -2.77367L33.4033 -1.20028L35.4481 -2.19023Z" fill="#B62B21"/>
<path d="M23.5904 38.5107L24.4389 36.758L23.0903 35.3533L25.0194 35.6186L25.9386 33.9019L26.2824 35.8187L28.1991 36.1624L26.4824 37.0817L26.7478 39.0108L25.3431 37.6622L23.5904 38.5107Z" fill="#B62B21"/>
<path d="M39.6706 40.4903C30.7388 44.3278 19.9875 42.5999 12.6941 35.3065C5.40074 28.0131 3.67279 17.2619 7.51026 8.32998L6.82195 7.64167C2.65584 16.9684 4.39957 28.2939 12.0531 35.9475C19.7067 43.601 31.0322 45.3448 40.3589 41.1786L39.6706 40.4903Z" fill="#B62B21"/>
<path d="M20.3295 -4.48924C29.2613 -8.32671 40.0126 -6.59876 47.306 0.694607C54.5994 7.98798 56.3273 18.7393 52.4898 27.6711L53.1781 28.3594C57.3443 19.0327 55.6005 7.70722 47.947 0.0536458C40.2934 -7.59993 28.9679 -9.34366 19.6412 -5.17755L20.3295 -4.48924Z" fill="#B62B21"/>
<path d="M41.725 42.5444C31.6169 47.3731 19.1435 45.6013 10.7712 37.2289C2.3988 28.8566 0.626986 16.3832 5.4557 6.27506L4.101 4.92036C-1.39623 15.8006 0.399844 29.4215 9.48923 38.5109C18.5786 47.6003 32.1995 49.3963 43.0797 43.8991L41.725 42.5444Z" fill="#B62B21"/>
<path d="M18.2749 -6.54416C28.3831 -11.3729 40.8565 -9.60106 49.2288 -1.22871C57.6012 7.14364 59.373 19.617 54.5443 29.7252L55.899 31.0799C61.3962 20.1996 59.6001 6.57876 50.5107 -2.51063C41.4213 -11.6 27.8005 -13.3961 16.9202 -7.89886L18.2749 -6.54416Z" fill="#B62B21"/>
<path d="M15.2579 -8.85539L56.8542 32.7409L44.7421 44.853L3.14582 3.25672L15.2579 -8.85539Z" stroke="#B62B21"/>
<path d="M16.4218 6.33543L14.3075 8.44968L13.6252 7.76732L18.6916 2.7009L20.1235 4.13279C20.4441 4.45335 20.688 4.76329 20.8554 5.06264C21.0251 5.35962 21.1241 5.64482 21.1523 5.91823C21.183 6.19401 21.1476 6.45564 21.0463 6.70312C20.9473 6.94825 20.7905 7.17806 20.576 7.39255C20.3969 7.57169 20.2013 7.71075 19.9891 7.80975C19.777 7.90874 19.5543 7.96649 19.3209 7.98299C19.0923 7.99949 18.8566 7.97356 18.6138 7.90521C18.3734 7.83921 18.133 7.73079 17.8926 7.57994C17.9279 7.71429 17.9315 7.8616 17.9032 8.02188L17.3693 11.5114L16.7612 10.9033C16.6363 10.7784 16.5927 10.6382 16.6304 10.4826L17.1254 7.3572C17.1419 7.26056 17.1383 7.17689 17.1148 7.10617C17.0935 7.03311 17.0358 6.94943 16.9415 6.85515L16.4218 6.33543ZM16.9203 5.83692L17.638 6.55463C17.8384 6.75498 18.0375 6.90701 18.2355 7.01071C18.4382 7.11442 18.6339 7.17335 18.8224 7.18749C19.0157 7.20163 19.1995 7.17335 19.374 7.10264C19.5484 7.03193 19.7098 6.92233 19.8583 6.77383C20.16 6.47214 20.2873 6.14451 20.2402 5.79096C20.1954 5.43976 19.9762 5.06735 19.5826 4.67373L18.833 3.92419L16.9203 5.83692ZM23.0619 9.92792C23.2764 10.1424 23.4379 10.3769 23.5463 10.6315C23.6571 10.8837 23.7101 11.1441 23.7054 11.4128C23.703 11.6792 23.6382 11.9491 23.5109 12.2225C23.3884 12.4959 23.1998 12.7599 22.9452 13.0144C22.8462 13.1134 22.7696 13.1688 22.7154 13.1806C22.6612 13.1924 22.6046 13.1688 22.5457 13.1099L20.1628 10.7269C19.9412 10.9579 19.775 11.1854 19.6643 11.4093C19.5535 11.6332 19.491 11.8512 19.4769 12.0634C19.4651 12.2732 19.4993 12.4747 19.5794 12.668C19.6619 12.8589 19.788 13.0392 19.9577 13.2089C20.1156 13.3668 20.2688 13.4847 20.4173 13.5624C20.5705 13.6402 20.7096 13.6992 20.8345 13.7392C20.9594 13.7793 21.0667 13.8088 21.1563 13.8276C21.2505 13.8465 21.3177 13.8759 21.3578 13.916C21.4096 13.9679 21.4297 14.028 21.4179 14.0963L21.3649 14.5029C21.1928 14.5194 21.0172 14.5088 20.8381 14.4711C20.6613 14.431 20.488 14.3709 20.3183 14.2908C20.151 14.213 19.9907 14.1187 19.8375 14.0079C19.6819 13.8995 19.5393 13.7805 19.4097 13.6508C19.1622 13.4033 18.9748 13.1335 18.8476 12.8412C18.725 12.5489 18.6672 12.246 18.6743 11.9326C18.6861 11.6191 18.7686 11.3009 18.9218 10.978C19.075 10.6551 19.306 10.3392 19.6148 10.0304C19.8646 9.7806 20.1357 9.58497 20.4279 9.44355C20.7226 9.30448 21.0207 9.22788 21.3224 9.21374C21.6265 9.19724 21.927 9.24792 22.224 9.36577C22.5233 9.48126 22.8026 9.66864 23.0619 9.92792ZM22.6129 10.4052C22.3088 10.1012 21.9812 9.95031 21.63 9.95267C21.2812 9.95267 20.93 10.087 20.5764 10.3557L22.5245 12.3038C22.6706 12.1577 22.7838 12.0045 22.8639 11.8442C22.9464 11.6815 22.9924 11.5177 23.0018 11.3527C23.0136 11.1854 22.9865 11.0216 22.9205 10.8613C22.8592 10.701 22.7567 10.549 22.6129 10.4052ZM27.1024 15.3544C27.0576 15.3614 27.0187 15.3626 26.9857 15.3579C26.9527 15.3532 26.9186 15.3331 26.8832 15.2978C26.8479 15.2624 26.8231 15.2094 26.809 15.1387C26.7995 15.068 26.7807 14.9831 26.7524 14.8841C26.7241 14.7851 26.6782 14.6755 26.6145 14.5553C26.5556 14.4351 26.4601 14.309 26.3281 14.177C26.1537 14.0026 25.9675 13.88 25.7695 13.8093C25.5739 13.7363 25.3712 13.7127 25.1614 13.7386C24.954 13.7669 24.743 13.8411 24.5285 13.9614C24.3164 14.0839 24.1066 14.2489 23.8992 14.4563C23.6824 14.6732 23.5139 14.8912 23.3936 15.1104C23.2758 15.3272 23.2039 15.5382 23.178 15.7433C23.1544 15.946 23.1756 16.1416 23.2416 16.3302C23.3123 16.5187 23.4278 16.6931 23.5881 16.8534C23.7413 17.0066 23.8851 17.115 24.0194 17.1787C24.1561 17.24 24.2799 17.2812 24.3907 17.3024C24.5014 17.3236 24.5957 17.3378 24.6735 17.3449C24.7536 17.3496 24.8149 17.3731 24.8574 17.4156C24.9116 17.4698 24.9316 17.5299 24.9175 17.5959L24.8644 18.0025C24.5179 18.0378 24.1832 17.9836 23.8603 17.8398C23.5398 17.6937 23.2499 17.491 22.9906 17.2317C22.7667 17.0078 22.5993 16.758 22.4885 16.4822C22.3801 16.2088 22.333 15.9236 22.3471 15.6266C22.3636 15.3272 22.4449 15.022 22.5911 14.7109C22.7396 14.4021 22.96 14.1016 23.2522 13.8093C23.5186 13.543 23.8014 13.3332 24.1007 13.18C24.4024 13.0292 24.7053 12.9431 25.0094 12.9219C25.3182 12.9007 25.6234 12.949 25.9251 13.0669C26.2268 13.1847 26.5132 13.3792 26.7842 13.6502C27.0341 13.9001 27.2144 14.1629 27.3252 14.4387C27.4383 14.7121 27.4949 14.9973 27.4949 15.2943L27.1024 15.3544ZM30.0708 16.9368C30.2853 17.1513 30.4468 17.3858 30.5552 17.6404C30.666 17.8926 30.719 18.1531 30.7143 18.4218C30.7119 18.6881 30.6471 18.958 30.5198 19.2314C30.3973 19.5048 30.2087 19.7688 29.9542 20.0234C29.8552 20.1224 29.7786 20.1777 29.7243 20.1895C29.6701 20.2013 29.6136 20.1777 29.5546 20.1188L27.1717 17.7359C26.9501 17.9669 26.784 18.1943 26.6732 18.4182C26.5624 18.6421 26.4999 18.8602 26.4858 19.0723C26.474 19.2821 26.5082 19.4836 26.5883 19.6769C26.6708 19.8678 26.7969 20.0481 26.9666 20.2178C27.1246 20.3757 27.2778 20.4936 27.4263 20.5714C27.5795 20.6491 27.7185 20.7081 27.8434 20.7481C27.9684 20.7882 28.0756 20.8177 28.1652 20.8365C28.2595 20.8554 28.3266 20.8848 28.3667 20.9249C28.4186 20.9768 28.4386 21.0369 28.4268 21.1052L28.3738 21.5118C28.2017 21.5283 28.0261 21.5177 27.847 21.48C27.6702 21.4399 27.497 21.3798 27.3273 21.2997C27.1599 21.2219 26.9996 21.1276 26.8464 21.0168C26.6909 20.9084 26.5483 20.7894 26.4186 20.6598C26.1711 20.4123 25.9838 20.1424 25.8565 19.8501C25.7339 19.5578 25.6762 19.255 25.6832 18.9415C25.695 18.628 25.7775 18.3098 25.9307 17.9869C26.0839 17.664 26.3149 17.3481 26.6237 17.0394C26.8735 16.7895 27.1446 16.5939 27.4369 16.4525C27.7315 16.3134 28.0296 16.2368 28.3313 16.2227C28.6354 16.2062 28.9359 16.2568 29.2329 16.3747C29.5323 16.4902 29.8116 16.6776 30.0708 16.9368ZM29.6218 17.4141C29.3178 17.1101 28.9901 16.9592 28.6389 16.9616C28.2901 16.9616 27.9389 17.0959 27.5853 17.3646L29.5334 19.3127C29.6796 19.1666 29.7927 19.0134 29.8728 18.8531C29.9553 18.6905 30.0013 18.5266 30.0107 18.3617C30.0225 18.1943 29.9954 18.0305 29.9294 17.8702C29.8681 17.7099 29.7656 17.5579 29.6218 17.4141ZM33.0047 19.9839L29.4232 23.5654L28.7939 22.936L32.3754 19.3545L33.0047 19.9839ZM34.2704 19.001C34.2092 19.0623 34.1384 19.107 34.0583 19.1353C33.9829 19.1636 33.9027 19.1778 33.8179 19.1778C33.7377 19.1778 33.6588 19.1624 33.581 19.1318C33.5032 19.1012 33.4337 19.0552 33.3724 18.9939C33.3111 18.9326 33.2652 18.8631 33.2345 18.7853C33.2062 18.7099 33.1909 18.6309 33.1886 18.5484C33.1909 18.4659 33.2062 18.387 33.2345 18.3116C33.2652 18.2338 33.3111 18.1642 33.3724 18.103C33.4337 18.0417 33.5032 17.9957 33.581 17.9651C33.6611 17.9321 33.7413 17.9156 33.8214 17.9156C33.9063 17.9156 33.9864 17.9297 34.0618 17.958C34.1396 17.9886 34.2092 18.0346 34.2704 18.0959C34.3317 18.1572 34.3777 18.2267 34.4083 18.3045C34.439 18.3823 34.4531 18.4624 34.4507 18.5449C34.4531 18.6274 34.4378 18.7087 34.4048 18.7888C34.3765 18.869 34.3317 18.9397 34.2704 19.001ZM33.6613 20.6405L34.1775 21.1567C34.227 21.2062 34.2553 21.2604 34.2624 21.3193C34.2694 21.3782 34.2624 21.4324 34.2412 21.4819L32.8446 24.6957C32.7928 24.8136 32.7338 24.9244 32.6678 25.0281C32.6018 25.1318 32.5359 25.2331 32.4699 25.3321C32.5712 25.2685 32.6749 25.2048 32.781 25.1412C32.887 25.0776 32.999 25.0198 33.1169 24.968L36.3413 23.582C36.3931 23.5585 36.4462 23.5502 36.5004 23.5573C36.5593 23.5644 36.6123 23.5915 36.6595 23.6386L37.1509 24.13L32.1092 26.2514L31.54 25.6821L33.6613 20.6405ZM39.1168 25.9828C39.3313 26.1973 39.4928 26.4318 39.6012 26.6864C39.712 26.9386 39.765 27.1991 39.7603 27.4678C39.7579 27.7341 39.6931 28.004 39.5658 28.2774C39.4433 28.5508 39.2547 28.8148 39.0002 29.0694C38.9012 29.1683 38.8246 29.2237 38.7703 29.2355C38.7161 29.2473 38.6596 29.2237 38.6006 29.1648L36.2177 26.7819C35.9961 27.0129 35.83 27.2403 35.7192 27.4642C35.6084 27.6881 35.5459 27.9062 35.5318 28.1183C35.52 28.3281 35.5542 28.5296 35.6343 28.7229C35.7168 28.9138 35.8429 29.0941 36.0126 29.2638C36.1705 29.4217 36.3238 29.5396 36.4722 29.6174C36.6255 29.6951 36.7645 29.7541 36.8894 29.7941C37.0144 29.8342 37.1216 29.8637 37.2112 29.8825C37.3055 29.9014 37.3726 29.9308 37.4127 29.9709C37.4646 30.0228 37.4846 30.0829 37.4728 30.1512L37.4198 30.5578C37.2477 30.5743 37.0721 30.5637 36.893 30.526C36.7162 30.4859 36.543 30.4258 36.3733 30.3457C36.2059 30.2679 36.0456 30.1736 35.8924 30.0628C35.7369 29.9544 35.5943 29.8354 35.4646 29.7057C35.2171 29.4583 35.0297 29.1884 34.9025 28.8961C34.7799 28.6038 34.7222 28.301 34.7292 27.9875C34.741 27.674 34.8235 27.3558 34.9767 27.0329C35.1299 26.71 35.3609 26.3941 35.6697 26.0854C35.9195 25.8355 36.1906 25.6399 36.4829 25.4985C36.7775 25.3594 37.0756 25.2828 37.3773 25.2687C37.6814 25.2522 37.9819 25.3028 38.2789 25.4207C38.5782 25.5362 38.8576 25.7236 39.1168 25.9828ZM38.6678 26.4601C38.3638 26.1561 38.0361 26.0052 37.6849 26.0076C37.3361 26.0076 36.9849 26.1419 36.6313 26.4106L38.5794 28.3587C38.7256 28.2126 38.8387 28.0594 38.9188 27.8991C39.0013 27.7365 39.0473 27.5726 39.0567 27.4077C39.0685 27.2403 39.0414 27.0765 38.9754 26.9162C38.9141 26.7559 38.8116 26.6039 38.6678 26.4601ZM40.29 34.4321C40.2004 34.3426 40.1875 34.2424 40.2511 34.1316L40.6294 33.6402C40.29 33.6732 39.9647 33.6473 39.6536 33.5624C39.3472 33.4776 39.0667 33.3079 38.8122 33.0533C38.6071 32.8482 38.4598 32.6231 38.3702 32.378C38.283 32.1305 38.2571 31.8712 38.2924 31.6002C38.3278 31.3291 38.428 31.0475 38.593 30.7552C38.7579 30.4629 38.9889 30.1683 39.2859 29.8713C39.5499 29.6073 39.8304 29.3975 40.1274 29.242C40.4267 29.0841 40.7261 28.9874 41.0254 28.9521C41.3271 28.9191 41.6206 28.9509 41.9058 29.0475C42.1933 29.1418 42.4585 29.3103 42.7012 29.5531C42.9205 29.7723 43.0701 29.9974 43.1503 30.2284C43.2328 30.457 43.2681 30.6998 43.2563 30.9567L45.2433 28.9698L45.8726 29.5991L40.6648 34.8069L40.29 34.4321ZM39.5299 32.7528C39.7349 32.9578 39.9612 33.0898 40.2087 33.1488C40.4585 33.21 40.7343 33.2195 41.036 33.177L42.7684 31.4446C42.8085 31.1736 42.7896 30.9379 42.7119 30.7375C42.6388 30.5372 42.5186 30.3533 42.3512 30.186C42.0165 29.8513 41.6406 29.7134 41.2234 29.7723C40.8062 29.8312 40.3772 30.0811 39.9365 30.5218C39.7031 30.7552 39.5228 30.9756 39.3955 31.183C39.2706 31.3881 39.1928 31.5837 39.1622 31.7699C39.1339 31.9537 39.1516 32.127 39.2152 32.2896C39.2789 32.4523 39.3837 32.6066 39.5299 32.7528Z" fill="#B62B21"/>
</g>
<defs>
<clipPath id="clip0">
<rect width="60" height="60" fill="white" transform="translate(0 -12)"/>
</clipPath>
</defs>
</svg>
